<svg width="256" height="256" viewBox="0 0 256 256" fill="none" xmlns="http://www.w3.org/2000/svg">
<rect width="256" height="256" fill="black"/>
<path d="M256 128C256 198.692 198.692 256 128 256C57.3076 256 0 198.692 0 128C0 57.3076 57.3076 0 128 0C198.692 0 256 57.3076 256 128ZM19.2 128C19.2 188.089 67.9114 236.8 128 236.8C188.089 236.8 236.8 188.089 236.8 128C236.8 67.9114 188.089 19.2 128 19.2C67.9114 19.2 19.2 67.9114 19.2 128Z" fill="#C4C4C4"/>
<path d="M91.5 138C97.0228 138 101.5 133.523 101.5 128C101.5 122.477 97.0228 118 91.5 118V138ZM83.4289 120.929C79.5237 124.834 79.5237 131.166 83.4289 135.071L147.069 198.711C150.974 202.616 157.305 202.616 161.211 198.711C165.116 194.805 165.116 188.474 161.211 184.569L104.642 128L161.211 71.4315C165.116 67.5262 165.116 61.1946 161.211 57.2893C157.305 53.3841 150.974 53.3841 147.069 57.2893L83.4289 120.929ZM91.5 118H90.5V138H91.5V118Z" fill="#C4C4C4"/>
</svg>
