<svg width="256" height="256" viewBox="0 0 256 256" fill="none" xmlns="http://www.w3.org/2000/svg">
<rect width="256" height="256" fill="black"/>
<path d="M256 128C256 198.692 198.692 256 128 256C57.3076 256 0 198.692 0 128C0 57.3076 57.3076 0 128 0C198.692 0 256 57.3076 256 128ZM19.2 128C19.2 188.089 67.9114 236.8 128 236.8C188.089 236.8 236.8 188.089 236.8 128C236.8 67.9114 188.089 19.2 128 19.2C67.9114 19.2 19.2 67.9114 19.2 128Z" fill="#C4C4C4"/>
<path d="M166 118C160.477 118 156 122.477 156 128C156 133.523 160.477 138 166 138V118ZM174.071 135.071C177.976 131.166 177.976 124.834 174.071 120.929L110.431 57.2893C106.526 53.3841 100.195 53.3841 96.2893 57.2893C92.3841 61.1946 92.3841 67.5262 96.2893 71.4315L152.858 128L96.2893 184.569C92.3841 188.474 92.3841 194.805 96.2893 198.711C100.195 202.616 106.526 202.616 110.431 198.711L174.071 135.071ZM166 138H167V118H166V138Z" fill="#C4C4C4"/>
</svg>
