<svg width="256" height="256" viewBox="0 0 256 256" fill="none" xmlns="http://www.w3.org/2000/svg">
<rect width="256" height="256" fill="black"/>
<path d="M256 128C256 198.692 198.692 256 128 256C57.3076 256 0 198.692 0 128C0 57.3076 57.3076 0 128 0C198.692 0 256 57.3076 256 128ZM19.2 128C19.2 188.089 67.9114 236.8 128 236.8C188.089 236.8 236.8 188.089 236.8 128C236.8 67.9114 188.089 19.2 128 19.2C67.9114 19.2 19.2 67.9114 19.2 128Z" fill="#CFBD02"/>
<path d="M118 90C118 95.5228 122.477 100 128 100C133.523 100 138 95.5228 138 90H118ZM135.071 81.9289C131.166 78.0237 124.834 78.0237 120.929 81.9289L57.2893 145.569C53.3841 149.474 53.3841 155.805 57.2893 159.711C61.1946 163.616 67.5262 163.616 71.4315 159.711L128 103.142L184.569 159.711C188.474 163.616 194.805 163.616 198.711 159.711C202.616 155.805 202.616 149.474 198.711 145.569L135.071 81.9289ZM138 90V89H118V90H138Z" fill="#CFBD02"/>
</svg>
